<?xml version="1.0" encoding="utf-8"?>
<!-- Generator: Adobe Illustrator 22.1.0, SVG Export Plug-In . SVG Version: 6.00 Build 0)  -->
<svg version="1.1" id="Layer_1" xmlns="http://www.w3.org/2000/svg" xmlns:xlink="http://www.w3.org/1999/xlink" x="0px" y="0px"
	 width="208px" height="50.3px" viewBox="0 0 208 50.3" style="enable-background:new 0 0 208 50.3;" xml:space="preserve">
<style type="text/css">
	.st0{fill:#FFFFFF;}
</style>
<g>
	<g>
		<path class="st0" d="M17.8,0.1L17.8,0.1c0.8,0,1.4,0.6,1.4,1.4v26.2c0,7-4.1,10.9-10,10.9c-4.5,0-7.5-2.7-8.8-4.3
			c-0.5-0.6-0.4-1.5,0.2-2l0,0c0.6-0.5,1.5-0.4,1.9,0.2c1.1,1.3,3.3,3.3,6.7,3.3c5.2,0,7.2-3.8,7.2-8.2V1.5
			C16.4,0.7,17,0.1,17.8,0.1z"/>
		<path class="st0" d="M27.8,29V14.6c0-0.7,0.6-1.3,1.3-1.3h0.3c0.7,0,1.3,0.6,1.3,1.3v14c0,5.1,2.9,7.2,7,7.2
			c5.5,0,7.6-5.4,7.6-5.4V14.6c0-0.7,0.6-1.3,1.3-1.3h0.3c0.7,0,1.3,0.6,1.3,1.3v22.1c0,0.7-0.6,1.3-1.3,1.3l0,0
			c-0.7,0-1.3-0.6-1.3-1.3v-3.1c0,0-2.4,5-8.4,5C32.4,38.6,27.8,35.7,27.8,29z"/>
		<path class="st0" d="M58.4,14.6v3.3c0,0,2.8-5.2,9.2-5.2c6.9,0,12.2,5.3,12.2,13c0,7.7-5.3,13-12.2,13c-5.5,0-8.2-3.8-8.9-4.8
			v15.3c0,0.7-0.6,1.3-1.3,1.3h-0.3c-0.7,0-1.3-0.6-1.3-1.3V14.6c0-0.7,0.6-1.3,1.3-1.3h0C57.8,13.3,58.4,13.9,58.4,14.6z
			 M58.6,30.1c0,0,2.6,5.7,8.9,5.7c5.5,0,9.3-4.5,9.3-10.2S73,15.4,67.5,15.4c-6.2,0-8.9,5.7-8.9,5.7V30.1z"/>
		<path class="st0" d="M87.7,3.1c1.2,0,2.2,1,2.2,2.2s-1,2.2-2.2,2.2c-1.2,0-2.2-1-2.2-2.2S86.6,3.1,87.7,3.1z M87.7,13.3L87.7,13.3
			c0.8,0,1.4,0.6,1.4,1.4v21.8c0,0.8-0.6,1.4-1.4,1.4h0c-0.8,0-1.4-0.6-1.4-1.4V14.7C86.3,13.9,87,13.3,87.7,13.3z"/>
		<path class="st0" d="M96.6,13.3h4.1V6.7c0-0.7,0.6-1.3,1.3-1.3h0.2c0.7,0,1.3,0.6,1.3,1.3v6.6h4c0.7,0,1.3,0.6,1.3,1.3v0
			c0,0.7-0.6,1.3-1.3,1.3h-4v14.9c0,2.8,1,5.1,4.3,5.1c1,0,1.9-0.3,2.5-0.6c0.7-0.3,1.4,0,1.7,0.7v0c0.3,0.7,0,1.5-0.7,1.8
			c-0.9,0.4-2.3,0.9-3.7,0.9c-4.8,0-7-3.2-7-7.3V15.9h-4.1c-0.7,0-1.3-0.6-1.3-1.3v0C95.3,13.9,95.9,13.3,96.6,13.3z"/>
		<path class="st0" d="M140.2,25.6c0,0.5,0,0.5-0.1,1.1h-21.2c0.2,3.7,3.3,9.1,9.8,9.1c3.2,0,5.8-1.5,7.5-3.2c0.5-0.5,1.4-0.5,1.9,0
			v0c0.5,0.5,0.5,1.4,0,1.9c-2.4,2.4-5.8,4-9.4,4c-7.3,0-12.6-5.9-12.6-13c0-7,4.8-13,12.2-13C134.8,12.6,140.2,18.1,140.2,25.6z
			 M137.3,24.2c-0.1-2.8-2.5-8.7-9-8.7c-6.9,0-9.1,6-9.2,8.7H137.3z"/>
		<path class="st0" d="M158.9,14.8L158.9,14.8c-0.3,0.6-1,1-1.6,0.8c-0.5-0.1-1.3-0.2-2.2-0.2c-4.3,0-6.3,5.2-6.3,5.2v15.9
			c0,0.8-0.6,1.4-1.4,1.4l0,0c-0.8,0-1.4-0.6-1.4-1.4v-22c0-0.7,0.6-1.3,1.3-1.3h0c0.7,0,1.3,0.6,1.3,1.3v2.1c0,0,2.1-4,7.2-4
			c0.8,0,1.5,0.1,2.1,0.2C158.8,13,159.3,14,158.9,14.8z"/>
	</g>
	<path class="st0" d="M207.9,1c0.3-0.4,0-1-0.5-1h-5.7c-1.8,0-3.5,0.8-4.7,2.2l-8.4,10.2c-0.2,0.3-0.7,0.3-0.9,0l-8.4-10.2
		c-1.2-1.4-2.9-2.2-4.7-2.2h-5.7c-0.5,0-0.8,0.6-0.5,1l14.5,17.6c0.2,0.2,0.2,0.6,0,0.8l-14.5,17.6c-0.3,0.4,0,1,0.5,1h5.7
		c1.8,0,3.5-0.8,4.7-2.2L207.9,1z M193.8,20.5l-4.5,5.5c-0.1,0.1-0.1,0.3,0,0.4l7.7,9.3c1.2,1.4,2.9,2.2,4.7,2.2h5.7
		c0.5,0,0.8-0.6,0.5-1l-13.6-16.4C194.2,20.3,194,20.3,193.8,20.5z"/>
</g>
</svg>
