<?xml version="1.0" encoding="utf-8"?>
<!-- Generator: Adobe Illustrator 23.0.0, SVG Export Plug-In . SVG Version: 6.00 Build 0)  -->
<svg version="1.1" id="Layer_1" xmlns="http://www.w3.org/2000/svg" xmlns:xlink="http://www.w3.org/1999/xlink" x="0px" y="0px"
	 width="199.11px" height="33.65px" viewBox="0 0 199.11 33.65" style="enable-background:new 0 0 199.11 33.65;"
	 xml:space="preserve">
<style type="text/css">
	.st0{fill:#222222;}
	.st1{fill:#FFFFFF;}
	.st2{fill:#212221;}
</style>
<g>
	<path class="st0" d="M195.11,3.82h-39c-2.21,0-4,1.79-4,4v10c0,2.21,1.79,4,4,4h39c2.21,0,4-1.79,4-4v-10
		C199.11,5.61,197.32,3.82,195.11,3.82z"/>
	<g>
		<path class="st1" d="M159.26,16.73V8.91h2.41c0.69,0,1.3,0.15,1.84,0.46c0.54,0.31,0.97,0.75,1.27,1.32
			c0.3,0.57,0.46,1.22,0.46,1.95v0.36c0,0.73-0.15,1.37-0.45,1.94c-0.3,0.57-0.72,1-1.26,1.32s-1.16,0.47-1.84,0.47H159.26z
			 M160.87,10.22v5.22h0.78c0.63,0,1.11-0.21,1.44-0.62c0.33-0.41,0.5-1,0.51-1.77v-0.41c0-0.79-0.16-1.4-0.49-1.81
			s-0.81-0.62-1.44-0.62H160.87z"/>
		<path class="st1" d="M172.21,13.33h-3.09v2.11h3.63v1.29h-5.24V8.91h5.23v1.3h-3.62v1.86h3.09V13.33z"/>
		<path class="st1" d="M176.9,8.91l2.01,5.67l2-5.67h2.12v7.82h-1.62V14.6l0.16-3.69l-2.11,5.83h-1.11l-2.1-5.82l0.16,3.68v2.14
			h-1.61V8.91H176.9z"/>
		<path class="st1" d="M191.96,13c0,0.77-0.14,1.45-0.41,2.03c-0.27,0.58-0.66,1.03-1.17,1.34c-0.51,0.31-1.09,0.47-1.74,0.47
			c-0.65,0-1.23-0.16-1.74-0.47s-0.9-0.76-1.18-1.33c-0.28-0.58-0.42-1.24-0.42-2v-0.39c0-0.77,0.14-1.45,0.42-2.03
			c0.28-0.59,0.67-1.04,1.18-1.35c0.51-0.31,1.08-0.47,1.74-0.47c0.65,0,1.23,0.16,1.74,0.47c0.51,0.31,0.9,0.76,1.18,1.35
			c0.28,0.58,0.42,1.26,0.42,2.03V13z M190.32,12.65c0-0.82-0.15-1.44-0.44-1.87c-0.29-0.43-0.71-0.64-1.26-0.64
			c-0.54,0-0.96,0.21-1.25,0.63s-0.44,1.04-0.45,1.85V13c0,0.8,0.15,1.42,0.44,1.86c0.29,0.44,0.72,0.66,1.27,0.66
			c0.54,0,0.96-0.21,1.25-0.64c0.29-0.42,0.44-1.04,0.44-1.86V12.65z"/>
	</g>
</g>
<g>
	<g>
		<path class="st2" d="M11.88,0.08h0.04c0.51,0,0.92,0.41,0.92,0.92v17.49c0,4.69-2.71,7.29-6.71,7.29c-2.99,0-4.99-1.83-5.9-2.9
			c-0.33-0.39-0.28-0.98,0.12-1.31l0,0c0.39-0.32,0.97-0.27,1.3,0.13c0.73,0.89,2.21,2.24,4.49,2.24c3.5,0,4.84-2.56,4.84-5.45V1
			C10.95,0.49,11.37,0.08,11.88,0.08z"/>
		<path class="st2" d="M18.61,19.39V9.73c0-0.47,0.38-0.85,0.85-0.85h0.18c0.47,0,0.85,0.38,0.85,0.85v9.37
			c0,3.39,1.91,4.84,4.66,4.84c3.65,0,5.09-3.61,5.09-3.61V9.73c0-0.47,0.38-0.85,0.85-0.85h0.18c0.47,0,0.85,0.38,0.85,0.85V24.5
			c0,0.47-0.38,0.85-0.85,0.85l0,0c-0.47,0-0.85-0.38-0.85-0.85v-2.08c0,0-1.59,3.36-5.63,3.36C21.64,25.78,18.61,23.87,18.61,19.39
			z"/>
		<path class="st2" d="M39,9.73v2.18c0,0,1.88-3.47,6.14-3.47c4.58,0,8.16,3.54,8.16,8.66c0,5.13-3.57,8.66-8.16,8.66
			c-3.65,0-5.49-2.53-5.96-3.18v10.2c0,0.47-0.38,0.85-0.85,0.85h-0.18c-0.47,0-0.85-0.38-0.85-0.85V9.73
			c0-0.47,0.38-0.85,0.85-0.85l0,0C38.62,8.89,39,9.27,39,9.73z M39.18,20.11c0,0,1.77,3.83,5.92,3.83c3.68,0,6.24-3,6.24-6.82
			s-2.56-6.82-6.24-6.82c-4.15,0-5.92,3.83-5.92,3.83V20.11z"/>
		<path class="st2" d="M58.63,2.1c0.79,0,1.44,0.65,1.44,1.44s-0.65,1.44-1.44,1.44c-0.79,0-1.44-0.65-1.44-1.44
			S57.84,2.1,58.63,2.1z M58.63,8.89L58.63,8.89c0.52,0,0.94,0.42,0.94,0.94v14.58c0,0.52-0.42,0.94-0.94,0.94l0,0
			c-0.52,0-0.94-0.42-0.94-0.94V9.82C57.7,9.31,58.12,8.89,58.63,8.89z"/>
		<path class="st2" d="M64.55,8.89h2.71V4.47c0-0.49,0.4-0.89,0.89-0.89h0.1c0.49,0,0.89,0.4,0.89,0.89v4.42h2.69
			c0.48,0,0.87,0.39,0.87,0.87v0c0,0.48-0.39,0.87-0.87,0.87h-2.69v9.93c0,1.84,0.65,3.39,2.89,3.39c0.64,0,1.24-0.18,1.69-0.37
			c0.44-0.18,0.95,0.03,1.14,0.46v0c0.2,0.45,0,0.98-0.46,1.17c-0.62,0.27-1.52,0.57-2.45,0.57c-3.21,0-4.69-2.17-4.69-4.87V10.62
			h-2.71c-0.48,0-0.87-0.39-0.87-0.87v0C63.69,9.27,64.08,8.89,64.55,8.89z"/>
		<path class="st2" d="M93.68,17.12c0,0.32,0,0.36-0.04,0.76H79.46c0.14,2.49,2.2,6.06,6.57,6.06c2.12,0,3.86-0.99,5.03-2.15
			c0.35-0.35,0.93-0.34,1.27,0.02v0c0.34,0.35,0.34,0.92-0.01,1.26c-1.6,1.58-3.91,2.7-6.29,2.7c-4.91,0-8.45-3.97-8.45-8.66
			c0-4.66,3.21-8.66,8.12-8.66C90.07,8.45,93.68,12.06,93.68,17.12z M91.73,16.14c-0.07-1.88-1.7-5.85-6.03-5.85
			c-4.58,0-6.1,4.04-6.17,5.85H91.73z"/>
		<path class="st2" d="M106.19,9.9L106.19,9.9c-0.18,0.42-0.64,0.64-1.09,0.54c-0.35-0.08-0.84-0.15-1.47-0.15
			c-2.85,0-4.19,3.5-4.19,3.5v10.61c0,0.52-0.42,0.94-0.94,0.94h0c-0.52,0-0.94-0.42-0.94-0.94V9.73c0-0.47,0.38-0.85,0.85-0.85l0,0
			c0.47,0,0.85,0.38,0.85,0.85v1.39c0,0,1.41-2.67,4.8-2.67c0.55,0,1.03,0.05,1.42,0.12C106.1,8.69,106.44,9.34,106.19,9.9z"/>
	</g>
	<path class="st2" d="M138.91,0.67C139.13,0.4,138.94,0,138.59,0h-3.82c-1.22,0-2.37,0.54-3.14,1.48l-5.61,6.8
		c-0.16,0.2-0.47,0.2-0.63,0l-5.61-6.8C119.01,0.54,117.85,0,116.64,0h-3.82c-0.34,0-0.53,0.4-0.31,0.67l9.69,11.75
		c0.12,0.15,0.12,0.37,0,0.52l-9.69,11.75c-0.22,0.27-0.03,0.67,0.31,0.67h3.82c1.22,0,2.37-0.54,3.14-1.48L138.91,0.67z
		 M129.54,13.7l-3.04,3.68c-0.06,0.08-0.06,0.18,0,0.26l5.13,6.22c0.77,0.94,1.93,1.48,3.14,1.48h3.82c0.34,0,0.53-0.4,0.31-0.67
		l-9.06-10.98C129.77,13.6,129.62,13.6,129.54,13.7z"/>
</g>
</svg>
